<svg width="1440" height="40" viewBox="0 0 1440 40" fill="none" xmlns="http://www.w3.org/2000/svg">
<path d="M-0.476199 16.8752C2.51237 16.8752 3.18476 18.1733 3.18476 19.7924C3.18476 21.5086 2.37142 22.7381 -0.463817 22.7381C-3.28096 22.7381 -4.09525 21.58 -4.09525 19.7924C-4.09525 18.0333 -3.20763 16.8752 -0.476199 16.8752Z" fill="white" fill-opacity="0.64"/>
<path d="M30.7562 16.8752C33.7448 16.8752 34.4171 18.1733 34.4171 19.7924C34.4171 21.5086 33.6029 22.7381 30.7686 22.7381C27.9524 22.7381 27.1371 21.58 27.1371 19.7924C27.1371 18.0333 28.0248 16.8752 30.7562 16.8752Z" fill="white" fill-opacity="0.64"/>
<path fill-rule="evenodd" clip-rule="evenodd" d="M-26.9364 36.6666V2.90186H124.09V36.6666H-26.9364ZM45.0427 34.7619H122.186V4.80662H45.0427V34.7619ZM-0.461916 25.6123C4.8438 25.6123 7.07427 23.3238 7.07427 19.7495C7.07427 16.1171 4.5619 13.958 -0.461916 13.958C-5.40858 13.958 -8.01239 16.3028 -8.01239 19.7495C-8.01239 23.639 -5.28096 25.6123 -0.461916 25.6123ZM-18.9086 14.2152V25.4409H-8.20001V22.4514H-15.0343V14.2152H-18.9086ZM19.059 25.4409L18.959 24.3533C17.6629 25.2782 16.0854 25.7234 14.4971 25.6123C12.1095 25.6123 10.1209 24.8971 9.0057 23.4533C8.27008 22.3992 7.89865 21.1339 7.94761 19.8495C7.9058 18.592 8.29008 17.3574 9.03808 16.3457C10.1667 14.9447 12.2124 14.0152 15.2581 14.0152C18.7619 14.0152 20.8209 15.0876 21.7067 16.8895C21.8968 17.3139 22.0085 17.7691 22.0362 18.2333H18.3295C18.2361 17.9512 18.0623 17.7026 17.8295 17.518C17.0911 17.0285 16.2094 16.8021 15.3267 16.8752C14.8088 16.8124 14.2835 16.8602 13.7856 17.0156C13.2877 17.1709 12.8284 17.4301 12.4381 17.7761C11.9948 18.3828 11.7868 19.1297 11.8524 19.878C11.8009 20.592 11.9923 21.3025 12.3952 21.8942C12.789 22.2612 13.2572 22.5391 13.7679 22.7094C14.2787 22.8796 14.8199 22.9381 15.3552 22.8809C16.4184 22.9674 17.4739 22.6395 18.3009 21.9657C18.4786 21.7436 18.601 21.4824 18.6581 21.2038H14.6695V18.7914H22.1333V25.4409H19.059ZM30.7705 25.6123C36.0752 25.6123 38.3067 23.3238 38.3067 19.7495C38.3067 16.1171 35.7904 13.958 30.7705 13.958C25.8238 13.958 23.22 16.3028 23.22 19.7495C23.22 23.639 25.9514 25.6123 30.7705 25.6123Z" fill="white" fill-opacity="0.64"/>
<path d="M51.5686 25.3981V14.1724H54.3305V25.3981H51.5686Z" fill="white" fill-opacity="0.64"/>
<path d="M68.5134 20.7077C67.8134 21.6229 66.6086 22.041 64.9105 22.0515C64.5524 22.0515 59.8048 22.0372 59.8048 22.0372V25.3982H57.1019V14.1724H64.9114C65.5374 14.1062 66.1705 14.1726 66.7686 14.3672C67.3676 14.5619 67.9181 14.8803 68.3857 15.302C69.0029 16.106 69.3029 17.1084 69.2295 18.1191C69.2924 19.0383 69.04 19.9516 68.5134 20.7077ZM66.2972 17.0477C66.0115 16.6191 65.3953 16.381 64.3524 16.381H59.7905V19.7982H64.3229C65.4381 19.7982 66.0257 19.5696 66.2972 19.1258C66.4581 18.8131 66.5276 18.461 66.4972 18.1105C66.521 17.745 66.4524 17.3794 66.2972 17.0477Z" fill="white" fill-opacity="0.64"/>
<path d="M77.1943 25.5695C72.1028 25.5695 70.5447 23.6648 70.5447 21.78H73.4333C73.4333 22.7095 74.7057 23.4105 77.3228 23.4105C79.9247 23.4105 80.6114 22.9524 80.6114 22.2086C80.6114 21.3791 80.0971 21.1219 77.68 20.8505C77.2038 20.8076 75.9076 20.6505 75.4209 20.5791C71.9924 20.1924 70.6724 19.1772 70.6724 17.361C70.6724 15.4448 72.6038 14.001 76.7933 14.001C81.3409 14.001 83.0857 15.7886 83.0857 17.6476H80.2285C80.2285 16.7038 79.1562 16.16 76.6247 16.16C74.0219 16.16 73.4647 16.5172 73.4647 17.2181C73.4647 17.9476 74.0362 18.1762 76.7981 18.5048C77.4276 18.5915 78.8286 18.7486 79.2143 18.7905C82.1324 19.0905 83.4476 20.1486 83.4476 22.0219C83.4428 24.2534 81.4409 25.5695 77.1943 25.5695Z" fill="white" fill-opacity="0.64"/>
<path d="M91.5809 25.5552C87.8495 25.5552 85.4181 24.0819 85.4181 20.9838V14.1724H88.1486V21.0219C88.1486 22.4381 89.3076 23.3809 91.6952 23.3809C93.8543 23.3809 95.1419 22.4952 95.1419 21.0219V14.1724H97.8448V21.2381C97.8448 24.0543 95.5848 25.5552 91.5809 25.5552Z" fill="white" fill-opacity="0.64"/>
<path d="M112.645 25.3981V17.9047L109.141 25.3981H106.482L103.078 17.9047V25.3981H100.507V14.1724H103.991L107.851 22.7238L111.798 14.1724H115.227V25.3981H112.645Z" fill="white" fill-opacity="0.64"/>
<g clip-path="url(#clip0_1_1522)">
<path fill-rule="evenodd" clip-rule="evenodd" d="M193.86 4.567L196.497 0L203.973 4.317L201.337 8.883C200.874 9.684 201.567 10.658 202.475 10.483L207.527 9.508L209.162 17.985L204.11 18.959C195.938 20.535 189.699 11.775 193.86 4.567Z" fill="white" fill-opacity="0.64"/>
<path fill-rule="evenodd" clip-rule="evenodd" d="M189.292 35.433L186.655 40L179.178 35.684L181.815 31.117C182.278 30.316 181.585 29.342 180.676 29.517L175.625 30.491L173.99 22.015L179.042 21.041C187.214 19.465 193.452 28.225 189.292 35.433Z" fill="white" fill-opacity="0.64"/>
<path fill-rule="evenodd" clip-rule="evenodd" d="M189.52 4.567L186.884 0L179.407 4.317L182.044 8.883C182.506 9.684 181.814 10.658 180.905 10.483L175.853 9.508L174.22 17.985L179.271 18.959C187.444 20.535 193.683 11.775 189.521 4.567H189.52Z" fill="white" fill-opacity="0.64"/>
<path fill-rule="evenodd" clip-rule="evenodd" d="M193.64 35.433L196.275 40L203.752 35.684L201.115 31.117C200.653 30.316 201.345 29.342 202.254 29.517L207.305 30.491L208.94 22.015L203.888 21.041C195.716 19.465 189.478 28.225 193.638 35.433H193.64Z" fill="white" fill-opacity="0.64"/>
<path d="M337.104 30.153V21.653C337.104 20.475 337.375 19.418 337.917 18.483C338.478 17.529 339.273 16.781 340.302 16.238C341.331 15.696 342.556 15.425 343.977 15.425C344.641 15.4185 345.301 15.5033 345.941 15.677C346.54 15.827 347.082 16.042 347.568 16.322C348.073 16.584 348.503 16.902 348.859 17.276H348.915C349.297 16.8967 349.731 16.5752 350.205 16.322C350.727 16.0352 351.284 15.8183 351.861 15.677C352.511 15.5046 353.181 15.4198 353.853 15.425C355.274 15.425 356.499 15.695 357.528 16.238C358.556 16.781 359.351 17.528 359.912 18.483C360.474 19.418 360.754 20.474 360.754 21.653V30.153H356.377V21.793C356.377 21.326 356.256 20.905 356.013 20.531C355.79 20.1398 355.472 19.8116 355.087 19.577C354.682 19.3303 354.215 19.2038 353.74 19.212C353.235 19.212 352.777 19.334 352.366 19.577C351.982 19.8113 351.663 20.1396 351.44 20.531C351.214 20.9124 351.097 21.3493 351.103 21.793V30.153H346.755V21.793C346.755 21.326 346.633 20.905 346.39 20.531C346.163 20.1342 345.833 19.8049 345.436 19.577C345.031 19.3303 344.564 19.2038 344.089 19.212C343.584 19.212 343.126 19.334 342.715 19.577C342.331 19.8113 342.012 20.1396 341.789 20.531C341.563 20.9126 341.446 21.3493 341.452 21.793V30.153H337.104ZM327.593 30.49C326.116 30.49 324.834 30.21 323.75 29.648C322.684 29.068 321.861 28.292 321.281 27.32C320.701 26.329 320.411 25.234 320.411 24.037V15.761H324.76V23.925C324.76 24.43 324.881 24.898 325.124 25.328C325.367 25.739 325.695 26.076 326.106 26.338C326.536 26.581 327.023 26.703 327.565 26.703C328.089 26.703 328.556 26.581 328.968 26.338C329.398 26.076 329.735 25.739 329.978 25.328C330.221 24.898 330.343 24.43 330.343 23.925V15.761H334.691V24.037C334.691 25.234 334.41 26.329 333.849 27.32C333.288 28.292 332.475 29.069 331.409 29.648C330.361 30.209 329.089 30.49 327.593 30.49ZM306.404 30.153V26.703H313.334C313.521 26.703 313.689 26.665 313.839 26.59C313.988 26.497 314.11 26.375 314.203 26.226C314.295 26.0786 314.344 25.9085 314.344 25.735C314.344 25.5615 314.295 25.3914 314.203 25.244C314.116 25.0998 313.99 24.983 313.839 24.907C313.688 24.8131 313.513 24.7645 313.334 24.767H310.809C309.873 24.767 309.022 24.617 308.256 24.318C307.529 24.0166 306.905 23.5096 306.46 22.859C306.03 22.186 305.815 21.316 305.815 20.25C305.815 19.427 306.011 18.679 306.404 18.006C306.813 17.3351 307.382 16.7758 308.059 16.378C308.767 15.9676 309.571 15.7545 310.388 15.761H317.317V19.24H311.061C310.813 19.235 310.572 19.3256 310.388 19.493C310.306 19.5732 310.242 19.6692 310.198 19.7754C310.155 19.8815 310.133 19.9953 310.135 20.11C310.135 20.372 310.22 20.596 310.388 20.783C310.572 20.9504 310.813 21.041 311.061 21.036H313.53C314.577 21.036 315.475 21.195 316.223 21.512C316.99 21.812 317.579 22.298 317.991 22.972C318.421 23.645 318.636 24.514 318.636 25.58C318.636 26.422 318.421 27.189 317.991 27.88C317.583 28.5688 317.003 29.1395 316.307 29.536C315.615 29.948 314.83 30.153 313.951 30.153H306.404ZM296.93 15.425C298.146 15.425 299.221 15.621 300.156 16.014C301.075 16.3642 301.901 16.9208 302.569 17.641C303.251 18.3466 303.777 19.1879 304.112 20.11C304.467 21.045 304.645 22.083 304.645 23.224C304.645 24.645 304.346 25.908 303.747 27.011C303.194 28.0681 302.359 28.9516 301.335 29.564C300.306 30.181 299.109 30.49 297.744 30.49C297.164 30.49 296.612 30.415 296.088 30.266C295.592 30.1201 295.12 29.9025 294.686 29.62C294.278 29.3428 293.926 28.9906 293.648 28.582H293.563V36.242H289.215V23.223C289.215 21.633 289.533 20.258 290.169 19.099C290.786 17.9582 291.722 17.0219 292.862 16.405C294.022 15.751 295.378 15.424 296.93 15.424V15.425ZM296.93 19.184C296.257 19.184 295.668 19.352 295.163 19.689C294.676 20.007 294.302 20.456 294.04 21.036C293.779 21.596 293.648 22.233 293.648 22.943C293.648 23.654 293.779 24.29 294.04 24.851C294.302 25.412 294.676 25.861 295.163 26.198C295.668 26.516 296.257 26.675 296.93 26.675C297.603 26.675 298.183 26.515 298.669 26.198C299.159 25.8586 299.547 25.3931 299.792 24.851C300.072 24.29 300.212 23.654 300.212 22.943C300.212 22.233 300.072 21.597 299.792 21.036C299.53 20.456 299.156 20.006 298.669 19.689C298.183 19.352 297.603 19.184 296.93 19.184ZM282.607 30.153V15.761H286.984V30.153H282.607ZM284.795 14.134C284.103 14.134 283.505 13.882 283 13.377C282.495 12.872 282.242 12.273 282.242 11.581C282.242 10.889 282.495 10.291 283 9.786C283.505 9.262 284.103 9 284.795 9C285.487 9 286.086 9.262 286.591 9.786C287.096 10.291 287.348 10.889 287.348 11.581C287.348 12.273 287.096 12.871 286.591 13.377C286.086 13.882 285.487 14.134 284.795 14.134ZM273.095 30.49C271.618 30.49 270.29 30.163 269.111 29.508C267.955 28.874 266.987 27.9448 266.306 26.815C265.633 25.674 265.296 24.393 265.296 22.971C265.296 21.531 265.633 20.25 266.306 19.128C266.987 17.9982 267.955 17.069 269.111 16.435C270.29 15.761 271.618 15.425 273.095 15.425C274.573 15.425 275.891 15.761 277.051 16.435C278.204 17.0646 279.164 17.9954 279.828 19.128C280.52 20.25 280.866 21.531 280.866 22.971C280.866 24.393 280.52 25.674 279.828 26.815C279.164 27.9476 278.204 28.8784 277.051 29.508C275.873 30.163 274.554 30.49 273.095 30.49ZM273.095 26.703C273.787 26.703 274.386 26.534 274.891 26.198C275.397 25.8614 275.803 25.3965 276.069 24.851C276.35 24.29 276.49 23.654 276.49 22.943C276.49 22.251 276.35 21.625 276.069 21.063C275.803 20.5179 275.396 20.0533 274.891 19.717C274.386 19.38 273.787 19.212 273.095 19.212C272.403 19.212 271.795 19.38 271.272 19.717C270.767 20.0537 270.36 20.5185 270.093 21.064C269.808 21.649 269.664 22.293 269.673 22.944C269.673 23.654 269.813 24.29 270.093 24.851C270.36 25.3964 270.767 25.8613 271.272 26.198C271.795 26.534 272.403 26.703 273.095 26.703ZM251.164 35.849V32.117H258.345C258.626 32.117 258.86 32.024 259.047 31.837C259.139 31.7564 259.211 31.6568 259.259 31.5452C259.308 31.4335 259.331 31.3126 259.327 31.191V28.021H259.243C258.888 28.4341 258.483 28.8016 258.037 29.115C257.625 29.415 257.157 29.639 256.634 29.789C256.078 29.9454 255.502 30.0208 254.923 30.013C253.651 30.013 252.51 29.713 251.5 29.115C250.509 28.498 249.723 27.647 249.143 26.562C248.583 25.478 248.302 24.243 248.302 22.859C248.302 21.494 248.592 20.25 249.172 19.128C249.77 18.006 250.64 17.108 251.781 16.435C252.921 15.761 254.315 15.425 255.961 15.425C257.532 15.425 258.888 15.752 260.029 16.407C261.175 17.0289 262.112 17.9751 262.722 19.127C263.358 20.287 263.676 21.653 263.676 23.224V31.64C263.676 32.93 263.293 33.95 262.526 34.698C261.778 35.465 260.74 35.848 259.412 35.848L251.164 35.849ZM255.989 26.366C256.662 26.366 257.242 26.216 257.729 25.917C258.21 25.605 258.597 25.169 258.85 24.655C259.116 24.114 259.251 23.5178 259.243 22.915C259.243 22.242 259.113 21.625 258.851 21.064C258.589 20.503 258.215 20.063 257.728 19.745C257.242 19.408 256.662 19.24 255.988 19.24C255.334 19.24 254.754 19.399 254.249 19.717C253.763 20.035 253.389 20.465 253.127 21.007C252.866 21.55 252.735 22.157 252.735 22.831C252.735 23.486 252.865 24.084 253.127 24.627C253.389 25.15 253.763 25.571 254.25 25.889C254.754 26.207 255.334 26.366 255.989 26.366ZM239.463 30.49C237.986 30.49 236.658 30.163 235.48 29.508C234.323 28.8742 233.355 27.945 232.674 26.815C232.001 25.674 231.664 24.393 231.664 22.971C231.664 21.531 232.001 20.25 232.674 19.128C233.355 17.998 234.323 17.0688 235.48 16.435C236.658 15.761 237.986 15.425 239.463 15.425C240.941 15.425 242.259 15.761 243.419 16.435C244.572 17.0647 245.532 17.9955 246.196 19.128C246.888 20.25 247.234 21.531 247.234 22.971C247.234 24.393 246.888 25.674 246.196 26.815C245.532 27.9475 244.572 28.8783 243.419 29.508C242.241 30.163 240.922 30.49 239.463 30.49ZM239.463 26.703C240.155 26.703 240.753 26.534 241.259 26.198C241.764 25.8611 242.171 25.3963 242.437 24.851C242.717 24.29 242.857 23.654 242.857 22.943C242.857 22.251 242.717 21.625 242.437 21.063C242.171 20.518 241.764 20.0535 241.259 19.717C240.754 19.38 240.155 19.212 239.463 19.212C238.771 19.212 238.163 19.38 237.64 19.717C237.135 20.0537 236.728 20.5185 236.461 21.064C236.176 21.649 236.032 22.293 236.041 22.944C236.041 23.654 236.181 24.29 236.461 24.851C236.728 25.3964 237.135 25.8613 237.64 26.198C238.163 26.534 238.771 26.703 239.463 26.703ZM225.537 30.153C224.321 30.153 223.255 29.883 222.339 29.34C221.449 28.8234 220.712 28.0776 220.207 27.18C219.702 26.282 219.449 25.29 219.449 24.206V10.515H224.162V24.542C224.162 24.992 224.322 25.384 224.639 25.721C224.957 26.057 225.349 26.226 225.817 26.226H231.007V30.153H225.537Z" fill="white" fill-opacity="0.64"/>
</g>
<g clip-path="url(#clip1_1_1522)">
<path fill-rule="evenodd" clip-rule="evenodd" d="M419.115 25.4C418.22 25.4 417.362 25.0444 416.729 24.4115C416.096 23.7786 415.74 22.9201 415.74 22.025V6.5H408.99V22.025C408.99 27.6167 413.524 32.15 419.115 32.15H426.54V25.4H419.115ZM439.365 13.25C438.568 13.25 437.778 13.4071 437.041 13.7124C436.304 14.0177 435.634 14.4652 435.07 15.0293C434.506 15.5934 434.058 16.2631 433.753 17.0002C433.448 17.7373 433.29 18.5272 433.29 19.325C433.29 20.1228 433.448 20.9127 433.753 21.6498C434.058 22.3869 434.506 23.0566 435.07 23.6207C435.634 24.1848 436.304 24.6323 437.041 24.9376C437.778 25.2429 438.568 25.4 439.365 25.4C440.977 25.4 442.522 24.76 443.661 23.6207C444.8 22.4814 445.44 20.9362 445.44 19.325C445.44 17.7138 444.8 16.1686 443.661 15.0293C442.522 13.89 440.977 13.25 439.365 13.25ZM426.54 19.325C426.54 12.2422 432.283 6.5 439.365 6.5C446.448 6.5 452.19 12.2422 452.19 19.325C452.19 26.4078 446.448 32.15 439.365 32.15C432.283 32.15 426.54 26.4078 426.54 19.325ZM512.265 13.25C510.654 13.25 509.109 13.89 507.97 15.0293C506.831 16.1686 506.19 17.7138 506.19 19.325C506.19 20.9362 506.831 22.4814 507.97 23.6207C509.109 24.76 510.654 25.4 512.265 25.4C513.877 25.4 515.422 24.76 516.561 23.6207C517.7 22.4814 518.34 20.9362 518.34 19.325C518.34 17.7138 517.7 16.1686 516.561 15.0293C515.422 13.89 513.877 13.25 512.265 13.25ZM499.44 19.325C499.44 12.2422 505.183 6.5 512.265 6.5C519.348 6.5 525.09 12.2422 525.09 19.325C525.09 26.4078 519.348 32.15 512.265 32.15C505.183 32.15 499.44 26.4078 499.44 19.325ZM466.365 6.5C459.283 6.5 453.54 12.2422 453.54 19.325C453.54 26.4078 459.283 32.15 466.365 32.15H485.265C486.595 32.15 487.876 31.9475 489.082 31.5722L492.69 33.5L496.584 26.2073C497.573 24.3508 498.09 22.2797 498.09 20.1762V19.325C498.09 12.2422 492.348 6.5 485.265 6.5H466.365ZM491.34 19.325C491.34 17.7138 490.7 16.1686 489.561 15.0293C488.422 13.89 486.877 13.25 485.265 13.25H466.365C465.568 13.25 464.778 13.4071 464.041 13.7124C463.304 14.0177 462.634 14.4652 462.07 15.0293C461.506 15.5934 461.058 16.2631 460.753 17.0002C460.448 17.7373 460.29 18.5272 460.29 19.325C460.29 20.1228 460.448 20.9127 460.753 21.6498C461.058 22.3869 461.506 23.0566 462.07 23.6207C462.634 24.1848 463.304 24.6323 464.041 24.9376C464.778 25.2429 465.568 25.4 466.365 25.4H485.265C486.869 25.4 488.407 24.7665 489.545 23.6374C490.682 22.5083 491.328 20.9752 491.34 19.3722V19.325Z" fill="white" fill-opacity="0.64"/>
<path d="M527.79 8.1875C527.79 8.63505 527.613 9.06428 527.296 9.38074C526.98 9.69721 526.551 9.875 526.103 9.875C525.655 9.875 525.226 9.69721 524.91 9.38074C524.593 9.06428 524.415 8.63505 524.415 8.1875C524.415 7.73995 524.593 7.31072 524.91 6.99426C525.226 6.67779 525.655 6.5 526.103 6.5C526.551 6.5 526.98 6.67779 527.296 6.99426C527.613 7.31072 527.79 7.73995 527.79 8.1875Z" fill="white" fill-opacity="0.64"/>
</g>
<g clip-path="url(#clip2_1_1522)">
<path fill-rule="evenodd" clip-rule="evenodd" d="M741.359 11.8668L737.185 7.66415C737.125 7.4791 737.008 7.31735 736.852 7.2014C736.696 7.0854 736.507 7.02093 736.313 7.01687C736.147 7.01566 735.981 7.00753 735.815 6.99259C735.643 6.9769 735.47 6.95371 735.299 6.92308C735.235 6.66858 735.25 6.39352 735.265 6.12046C735.289 5.67885 735.312 5.24238 734.999 4.90617C734.999 4.90617 731.247 1.08821 730.572 0.431543C730.495 0.310732 730.392 0.209045 730.27 0.134211C730.148 0.0594347 730.01 0.0135152 729.868 2.72188e-06H729.793C729.555 -0.00056984 729.326 0.0892079 729.152 0.251186C728.978 0.413106 728.871 0.635203 728.855 0.872416C728.792 1.63581 728.596 2.38215 728.273 3.07695V3.12384C728.239 3.19765 728.202 3.26962 728.161 3.33959C727.692 4.24418 727.028 5.03323 726.216 5.6497C725.405 6.26624 724.467 6.69474 723.47 6.9043C723.281 6.94226 723.09 6.97043 722.898 6.98875H722.185C722.008 7.00129 721.839 7.06365 721.696 7.16854C721.553 7.27343 721.443 7.41657 721.378 7.58147C721.314 7.74631 721.297 7.92621 721.33 8.10021C721.363 8.27421 721.445 8.43528 721.566 8.56473L722.454 9.46033C721.928 9.3374 721.386 9.2912 720.843 9.32458C719.821 9.3121 718.807 9.50877 717.863 9.90235C716.92 10.2959 716.066 10.8782 715.356 11.6135L714.541 10.7984C714.589 10.847 714.634 10.8995 714.679 10.9533C714.704 10.9823 714.729 11.0118 714.755 11.0413C714.251 10.475 713.628 10.0273 712.931 9.73047C712.233 9.43365 711.479 9.29503 710.722 9.32458C709.463 9.29818 708.222 9.62306 707.138 10.2627L706.707 9.83112H690.703L690.543 10.5816L690.215 12.1576L687.888 9.82173H679.755L679.596 10.5722L679.061 13.152L677.466 11.5478C676.05 10.0844 673.714 9.27769 670.543 9.27769C666.453 9.27769 663.442 10.8068 662.1 13.3302L659.896 11.1069L660.018 11.2476C659.417 10.61 658.689 10.1054 657.881 9.76608C657.073 9.42678 656.203 9.26039 655.327 9.27769C654.136 9.29005 652.968 9.61344 651.941 10.2158L651.575 9.8499H649.239L649.483 8.64913L649.708 7.55158L645.168 2.97372H637.044V3.18013L636.837 2.97372H580.712V3.18013L580.496 2.97372H572.166L572.016 3.72418L567.025 27.6923L566.791 28.7992L571.331 33.3771H579.633L579.792 32.6173L580.59 28.7805L583.057 31.2664C584.969 33.042 587.503 33.9925 590.111 33.9118C592.135 33.9377 594.129 33.4262 595.89 32.4296L600.299 36.8668C601.866 38.4427 604.342 39.3433 607.438 39.3433C609.682 39.4674 611.912 38.9222 613.845 37.7767C613.961 37.6992 614.075 37.619 614.187 37.5361C614.323 37.4356 614.456 37.3313 614.586 37.2232L614.792 37.0262L614.811 37.01C614.885 36.9446 614.957 36.8811 615.028 36.8164C615.104 36.748 615.178 36.6783 615.252 36.6041C615.523 36.3082 615.773 35.9949 616.003 35.666L616.106 35.5535C616.13 35.5015 616.158 35.4513 616.19 35.4034C616.361 35.1399 616.518 34.8675 616.659 34.5872C616.691 34.5392 616.719 34.4891 616.744 34.4371C616.749 34.4219 616.749 34.4054 616.744 34.3902C616.935 33.9979 617.101 33.5937 617.241 33.1801C617.26 33.1444 617.276 33.1066 617.288 33.0675L617.428 32.6173L617.513 32.3077C617.607 31.9794 617.691 31.6416 617.757 31.2851L618.291 28.7899L620.759 31.2758C622.685 33.0488 625.235 33.9866 627.851 33.8837C630.284 33.9285 632.665 33.1775 634.633 31.7448L636.218 33.3489H638.77L638.338 35.4034L642.86 39.9531H650.984L651.049 39.6341L651.415 40H727.335L727.485 39.2495L728.423 34.4559L728.489 33.3489L728.658 32.5891L730.787 22.439L730.843 22.1482V22.1475C730.843 22.1022 730.843 22.0579 730.846 22.0139C730.85 21.9215 730.865 21.8306 730.909 21.7354C730.941 21.6674 730.953 21.5949 730.959 21.5223C730.961 21.4937 730.962 21.465 730.964 21.4366C730.966 21.3881 730.968 21.3403 730.975 21.2945C730.982 21.2421 730.984 21.1779 730.985 21.1088L730.985 21.0911C730.989 20.9794 730.993 20.8566 731.022 20.7505C731.052 20.6325 731.042 20.5476 731.032 20.4655L731.032 20.4616C731.027 20.4209 731.022 20.3808 731.022 20.3377V20.2532C731.071 20.1888 731.092 20.127 731.101 20.065C731.106 20.0198 731.106 19.9745 731.106 19.9281C731.106 19.9177 731.106 19.9073 731.106 19.8968V18.9869C731.106 18.9117 731.106 18.8182 731.096 18.7238L732.466 20.1032C732.622 20.2595 732.828 20.3558 733.048 20.3753C733.238 20.3888 733.427 20.3474 733.593 20.2558C733.76 20.1643 733.896 20.0266 733.986 19.8593C734.109 18.4109 734.674 17.0353 735.606 15.9193C736.537 14.8033 737.789 14.0009 739.193 13.621C739.476 13.5162 739.825 13.4909 740.171 13.4659C740.971 13.4081 741.754 13.3515 741.669 12.3171C741.613 12.1396 741.505 11.9829 741.359 11.8668ZM728.75 15.4414C728.689 15.4367 728.629 15.4198 728.574 15.3917C728.518 15.3637 728.469 15.325 728.429 15.2779C728.389 15.2308 728.359 15.1763 728.34 15.1174C728.321 15.0585 728.314 14.9965 728.319 14.9348C728.397 14.0994 728.298 13.2568 728.028 12.4624C727.758 11.668 727.323 10.9395 726.751 10.3249C726.18 9.71022 725.485 9.2232 724.713 8.8957C723.94 8.56821 723.107 8.40763 722.268 8.42449C722.144 8.42449 722.025 8.37508 721.937 8.28711C721.849 8.19915 721.799 8.07984 721.799 7.95544C721.799 7.83104 721.849 7.71175 721.937 7.62379C722.025 7.53582 722.144 7.4864 722.268 7.4864C722.493 7.50094 722.719 7.50094 722.944 7.4864C724.61 7.30889 726.162 6.5561 727.333 5.35757C728.505 4.15904 729.221 2.58974 729.36 0.919795C729.37 0.802012 729.423 0.692146 729.51 0.612143C729.597 0.532141 729.711 0.487905 729.829 0.488284C729.891 0.493019 729.951 0.509907 730.006 0.537968C730.061 0.566029 730.11 0.604712 730.15 0.651793C730.191 0.698875 730.221 0.753421 730.24 0.812297C730.259 0.871173 730.266 0.933209 730.261 0.994844C730.183 1.82951 730.282 2.67126 730.551 3.46504C730.821 4.25881 731.255 4.98674 731.825 5.60124C732.396 6.21573 733.089 6.70295 733.86 7.03104C734.632 7.35913 735.464 7.52069 736.302 7.50516C736.426 7.50516 736.546 7.55459 736.634 7.64255C736.722 7.73051 736.771 7.84981 736.771 7.97421C736.771 8.09861 736.722 8.21792 736.634 8.30588C736.546 8.39384 736.426 8.44325 736.302 8.44325C734.52 8.47269 732.811 9.15923 731.504 10.3712C730.197 11.5831 729.383 13.235 729.22 15.0099C729.21 15.1277 729.157 15.2376 729.07 15.3176C728.983 15.3976 728.869 15.4418 728.75 15.4414ZM609.727 10.7502H615.655L612.335 26.5006C611.725 29.4837 610.562 31.1911 608.798 32.4012C607.014 33.4363 604.966 33.9255 602.907 33.8083C598.986 33.8083 595.224 32.1667 594.849 28.1798H600.815C601.003 29.1179 601.866 29.6526 603.179 29.6526C604.952 29.6526 605.768 28.5832 606.134 26.904L606.49 25.1685H606.359C605.836 25.744 605.201 26.207 604.493 26.5295C603.785 26.852 603.019 27.0273 602.241 27.0447C598.789 27.0447 596.049 24.2961 596.106 20.2717C596.181 15.5813 599.239 10.253 604.37 10.253C605.343 10.1875 606.314 10.4018 607.168 10.8706C608.023 11.3393 608.725 12.043 609.192 12.8984H609.295L609.727 10.7502ZM604.633 22.6451C606.913 22.6451 608.179 20.0185 608.216 17.7577C608.216 16.2474 607.625 14.6995 605.881 14.6995C603.498 14.6995 602.288 17.3543 602.25 19.6338C602.25 21.1723 602.841 22.6451 604.586 22.6451H604.633ZM671.191 23.1517C671.191 24.1554 670.327 24.5588 669.192 24.5588C667.316 24.5588 666.687 23.6207 666.678 22.3074H660.777C660.674 27.2042 665.046 28.4143 668.93 28.4143C673.892 28.4143 677.11 26.2661 677.176 21.9791C677.176 18.555 674.258 17.5138 671.388 16.8477C669.183 16.3412 668.217 15.9753 668.226 15.1404C668.236 14.3055 669.221 13.9678 670.187 13.9678C671.397 13.9678 672.222 14.3993 672.307 15.5063H678.039C677.973 11.4162 674.286 10.2155 670.534 10.2155C665.974 10.2155 662.419 12.2886 662.363 16.2098C662.363 19.2961 664.445 20.4312 667.588 21.238C667.901 21.3212 668.205 21.3955 668.494 21.4662C670.064 21.8504 671.206 22.1297 671.191 23.1517ZM715.027 13.2924H714.924C714.669 12.3686 714.105 11.5599 713.327 11.0002C712.549 10.4406 711.603 10.1637 710.646 10.2155C708.095 10.2155 706.538 11.4819 705.065 13.3956H704.962L705.506 10.7502H699.539L695.965 27.8421H702.204L704.08 18.6207C704.511 16.6132 705.534 15.2061 707.082 15.2061C708.63 15.2061 708.836 16.4443 708.517 17.9547L706.453 27.8421H712.691L714.568 18.6207C714.999 16.4819 716.022 15.2061 717.569 15.2061C719.117 15.2061 719.324 16.3787 719.005 17.9547L716.941 27.8421H723.179L725.412 17.6826C726.35 13.3956 724.915 10.1779 720.797 10.1779C719.651 10.1732 718.523 10.4558 717.515 10.9999C716.507 11.544 715.652 12.3322 715.027 13.2924ZM567.935 27.8421H574.38L579.361 3.87402H572.926L567.935 27.8421ZM587.335 10.2436C591.687 10.2436 595.843 12.6263 595.777 18.0203C595.721 23.9209 591.706 28.3393 585.571 28.3393C581.35 28.3393 577.128 25.9941 577.203 20.6282C577.307 14.8684 581.265 10.2436 587.335 10.2436ZM589.502 17.8233C589.502 20.1633 588.502 24.1377 585.768 24.1554C584.01 24.1445 583.526 22.6388 583.526 20.9003C583.526 18.7239 584.455 14.5025 587.175 14.5025C588.986 14.5025 589.502 16.1442 589.502 17.8233ZM581.509 3.87402L580.571 8.66764H634.689L635.627 3.87402H581.509ZM625.036 10.2436C629.389 10.2436 633.545 12.6263 633.479 18.0203C633.423 23.9209 629.398 28.3393 623.263 28.3393C619.042 28.3393 614.821 25.9941 614.905 20.6282C615.036 14.8684 618.995 10.2436 625.036 10.2436ZM627.231 17.8233C627.231 20.1633 626.232 24.1377 623.497 24.1554C621.731 24.1445 621.246 22.6388 621.246 20.9003C621.246 18.7239 622.185 14.5025 624.896 14.5025C626.706 14.5025 627.231 16.1442 627.231 17.8233ZM637.841 3.87402L636.903 8.66764H643.132L644.07 3.87402H637.841ZM632.851 27.8421H639.089L642.663 10.7502H636.387L632.851 27.8421ZM652.757 28.4143C651.764 28.4848 650.771 28.2773 649.889 27.815C649.008 27.3527 648.273 26.6539 647.766 25.7971H647.663L645.787 34.4462H639.473L644.539 10.7502H650.468L649.999 13.0297C650.618 12.1877 651.42 11.497 652.344 11.0095C653.269 10.5221 654.292 10.2506 655.337 10.2155C659.089 10.2155 661.293 13.4331 661.228 17.617C661.143 22.8796 658.413 28.4143 652.719 28.4143H652.757ZM652.513 15.056C650.102 15.056 648.62 18.1423 648.582 20.5157C648.582 22.1667 649.164 24.0053 651.143 24.0053C653.723 24.0053 654.783 20.5907 654.811 18.3111C654.811 16.7633 654.361 15.056 652.513 15.056ZM688.583 25.1498H688.686L688.142 27.8609H694.07L697.645 10.7689H691.416L689.427 20.3186C689.024 22.298 687.804 23.3393 686.266 23.3393C684.727 23.3393 684.389 21.8946 684.699 20.3843L686.716 10.7689H680.487L678.282 21.3224C677.344 25.919 679.483 28.3956 683.067 28.3956C684.192 28.3846 685.295 28.0771 686.263 27.5039C687.231 26.9307 688.032 26.1122 688.583 25.131V25.1498ZM722.044 34.5307L722.982 29.737H649.004L648.066 34.5307H722.044Z" fill="white" fill-opacity="0.64"/>
</g>
<path d="M842.802 12.8686H846.471V27.7257H842.802V12.8686ZM847.933 22.1371C847.933 18.4571 850.219 16.2514 853.648 16.2514C857.076 16.2514 859.362 18.4571 859.362 22.1371C859.362 25.8171 857.156 28.0457 853.648 28.0457C850.139 28.0457 847.933 25.8971 847.933 22.1371ZM855.728 22.1371C855.728 20.1143 854.939 18.9257 853.682 18.9257C852.425 18.9257 851.648 20.0686 851.648 22.1371C851.648 24.2057 852.425 25.3371 853.682 25.3371C854.939 25.3371 855.751 24.2057 855.751 22.1486L855.728 22.1371ZM860.825 28.4914H864.368C864.529 28.8728 864.811 29.1911 865.17 29.3974C865.529 29.6038 865.946 29.687 866.356 29.6343C867.762 29.6343 868.493 28.88 868.493 27.76V25.7029H868.505C868.202 26.3434 867.713 26.8773 867.101 27.2343C866.489 27.5913 865.783 27.7546 865.076 27.7029C862.391 27.7029 860.608 25.6571 860.608 22.1371C860.608 18.6171 862.311 16.4229 865.179 16.4229C865.904 16.3841 866.623 16.571 867.237 16.9578C867.851 17.3447 868.33 17.9125 868.608 18.5829H868.505V16.5143H872.139V27.6457C872.139 30.3314 869.762 32.0114 866.265 32.0114C863.088 32 861.053 30.5486 860.848 28.5029L860.825 28.4914ZM868.505 22.1371C868.505 20.3429 867.682 19.2114 866.379 19.2114C865.076 19.2114 864.276 20.3543 864.276 22.1371C864.276 23.92 865.065 24.9714 866.379 24.9714C867.693 24.9714 868.505 24 868.505 22.1371ZM873.591 22.1371C873.591 18.4571 875.876 16.2514 879.305 16.2514C882.733 16.2514 885.019 18.4571 885.019 22.1371C885.019 25.8171 882.802 28.0457 879.305 28.0457C875.808 28.0457 873.613 25.8971 873.613 22.1371H873.591ZM881.385 22.1371C881.385 20.1143 880.585 18.9257 879.339 18.9257C878.093 18.9257 877.305 20.0686 877.305 22.1371C877.305 24.2057 878.082 25.3371 879.339 25.3371C880.596 25.3371 881.408 24.2057 881.408 22.1486L881.385 22.1371ZM886.505 13.8057C886.489 13.432 886.585 13.0621 886.781 12.7435C886.977 12.4249 887.264 12.1723 887.605 12.0182C887.946 11.8639 888.325 11.8152 888.693 11.8783C889.062 11.9413 889.403 12.1131 889.674 12.3718C889.944 12.6305 890.13 12.964 890.209 13.3296C890.288 13.6952 890.256 14.0761 890.117 14.4232C889.978 14.7704 889.738 15.068 889.428 15.2777C889.119 15.4874 888.753 15.5997 888.379 15.6C888.14 15.6061 887.902 15.5646 887.679 15.4781C887.457 15.3914 887.253 15.2614 887.081 15.0955C886.909 14.9297 886.771 14.7313 886.676 14.5118C886.581 14.2923 886.531 14.0562 886.528 13.8171L886.505 13.8057ZM886.505 16.5029H890.219V27.7714H886.562L886.505 16.5029ZM903.579 22.1371C903.579 25.8057 901.933 27.9314 899.133 27.9314C898.417 27.9757 897.703 27.7987 897.09 27.4248C896.477 27.0507 895.994 26.4976 895.705 25.84H895.636V31.3943H891.968V16.5371H895.613V18.5486H895.682C895.961 17.8781 896.44 17.3097 897.053 16.9211C897.667 16.5326 898.385 16.3426 899.111 16.3771C901.991 16.3543 903.648 18.4686 903.648 22.1486L903.579 22.1371ZM899.842 22.1371C899.842 20.3543 899.008 19.2 897.716 19.2C896.425 19.2 895.613 20.3429 895.602 22.1371C895.591 23.9314 896.425 25.0629 897.716 25.0629C899.008 25.0629 899.911 24 899.911 22.1486L899.842 22.1371ZM909.842 16.24C912.916 16.24 914.825 17.6914 914.848 20.0229H911.499C911.499 19.2114 910.825 18.7086 909.819 18.7086C908.813 18.7086 908.333 19.0971 908.333 19.68C908.333 20.2629 908.756 20.4457 909.602 20.6171L911.956 21.0971C914.242 21.5771 915.156 22.4914 915.156 24.1943C915.156 26.48 913.042 28.0343 909.899 28.0343C906.756 28.0343 904.711 26.5257 904.562 24.2286H908.116C908.219 25.0629 908.882 25.5543 909.956 25.5543C911.031 25.5543 911.533 25.2114 911.533 24.6057C911.533 24 911.191 23.8971 910.311 23.7143L908.185 23.2686C905.979 22.8 904.825 21.6457 904.825 19.92C904.893 17.68 906.813 16.2514 909.911 16.2514L909.842 16.24ZM927.442 27.76H923.888V25.6457H923.819C923.62 26.351 923.187 26.9673 922.591 27.3931C921.994 27.8191 921.271 28.029 920.539 27.9886C919.987 28.0065 919.436 27.9075 918.925 27.6979C918.415 27.4885 917.953 27.1731 917.572 26.7728C917.191 26.3723 916.899 25.8959 916.715 25.3747C916.531 24.8536 916.459 24.2993 916.505 23.7486V16.5143H920.173V22.96C920.173 24.2857 920.871 25.0057 922.013 25.0057C922.282 25.0037 922.546 24.9441 922.789 24.8312C923.033 24.7182 923.249 24.5543 923.423 24.3506C923.597 24.147 923.727 23.9082 923.801 23.6506C923.874 23.3929 923.892 23.1224 923.853 22.8571V16.5143H927.511L927.442 27.76ZM929.213 16.5029H932.779V18.6743H932.859C933.056 17.9786 933.479 17.368 934.059 16.9378C934.641 16.5078 935.348 16.2824 936.071 16.2971C936.796 16.2341 937.52 16.4439 938.098 16.8856C938.677 17.3273 939.071 17.9693 939.202 18.6857H939.362C939.591 17.9654 940.05 17.3407 940.671 16.9088C941.29 16.4768 942.036 16.2618 942.791 16.2971C943.292 16.2781 943.793 16.3651 944.258 16.5527C944.724 16.7401 945.145 17.0239 945.493 17.3854C945.842 17.7467 946.109 18.1777 946.28 18.6499C946.451 19.1222 946.52 19.625 946.482 20.1257V27.7714H942.791V21.0629C942.791 19.92 942.253 19.28 941.213 19.28C940.983 19.2762 940.754 19.3224 940.543 19.4152C940.331 19.5081 940.144 19.6456 939.991 19.8182C939.837 19.9909 939.723 20.1944 939.656 20.4152C939.589 20.636 939.571 20.8686 939.602 21.0971V27.7714H936.105V21.0286C936.105 19.8857 935.545 19.28 934.539 19.28C934.306 19.2782 934.075 19.3262 933.863 19.4208C933.649 19.5155 933.459 19.6546 933.304 19.8289C933.149 20.0032 933.034 20.2086 932.965 20.4312C932.896 20.6539 932.875 20.8888 932.905 21.12V27.7714H929.236L929.213 16.5029Z" fill="white" fill-opacity="0.64"/>
<path d="M835.545 13.8399C835.545 11.5653 834.858 9.34367 833.574 7.46603C832.29 5.58838 830.469 4.14227 828.349 3.31713C826.23 2.49197 823.91 2.32626 821.695 2.84167C819.479 3.35709 817.471 4.52962 815.933 6.20566H801.671V36.3085H831.785V22.2399C832.967 21.1828 833.913 19.8883 834.56 18.4409C835.208 16.9934 835.544 15.4258 835.545 13.8399ZM829.751 13.8399C829.753 14.9299 829.432 15.9961 828.828 16.9035C828.224 17.8108 827.364 18.5187 826.358 18.9373C825.352 19.3561 824.244 19.4668 823.174 19.2555C822.105 19.0443 821.122 18.5205 820.351 17.7506C819.579 16.9806 819.054 15.9991 818.84 14.9302C818.627 13.8614 818.735 12.7532 819.152 11.746C819.568 10.7388 820.274 9.87776 821.18 9.27197C822.087 8.66618 823.152 8.34282 824.242 8.34281C825.701 8.34281 827.1 8.92161 828.133 9.95219C829.166 10.9828 829.748 12.381 829.751 13.8399ZM825.991 30.5142H807.465V11.9999H813.111C813.001 12.6074 812.944 13.2229 812.939 13.8399C812.942 16.8367 814.134 19.7099 816.253 21.829C818.372 23.9479 821.245 25.1398 824.242 25.1428C824.828 25.1397 825.413 25.09 825.991 24.9942V30.5142Z" fill="white" fill-opacity="0.64"/>
<g clip-path="url(#clip3_1_1522)">
<path fill-rule="evenodd" clip-rule="evenodd" d="M1018.09 13.3482C1016.78 12.4692 1015.23 12 1013.65 12V4C1016.81 4 1019.91 4.93838 1022.54 6.69649C1025.17 8.45458 1027.22 10.9534 1028.43 13.877C1029.64 16.8006 1029.96 20.0178 1029.34 23.1214C1028.72 26.2251 1027.2 29.0761 1024.96 31.3137C1022.72 33.5514 1019.87 35.0752 1016.77 35.6926C1013.67 36.3099 1010.45 35.993 1007.52 34.7821C1004.6 33.571 1002.1 31.5203 1000.34 28.8891C998.586 26.2579 997.648 23.1645 997.648 20H1005.65C1005.65 21.5822 1006.12 23.129 1007 24.4446C1007.87 25.7602 1009.12 26.7855 1010.59 27.391C1012.05 27.9966 1013.66 28.155 1015.21 27.8462C1016.76 27.5376 1018.19 26.7757 1019.3 25.6569C1020.42 24.538 1021.19 23.1126 1021.49 21.5607C1021.8 20.0089 1021.64 18.4003 1021.04 16.9386C1020.43 15.4767 1019.41 14.2273 1018.09 13.3482Z" fill="white" fill-opacity="0.64"/>
<path fill-rule="evenodd" clip-rule="evenodd" d="M1005.65 4C1005.65 5.05058 1005.44 6.09087 1005.04 7.06148C1004.64 8.03207 1004.05 8.91399 1003.3 9.65686C1002.56 10.3997 1001.68 10.989 1000.71 11.391C999.739 11.7931 998.698 12 997.648 12L997.648 20C999.749 20 1001.83 19.5862 1003.77 18.7821C1005.71 17.978 1007.48 16.7994 1008.96 15.3137C1010.45 13.828 1011.63 12.0642 1012.43 10.1229C1013.23 8.18172 1013.65 6.10115 1013.65 4L1005.65 4Z" fill="white" fill-opacity="0.64"/>
<path d="M1098.14 15.562H1094.26V27.8919H1098.14V15.562Z" fill="white" fill-opacity="0.64"/>
<path d="M1094.69 13.2533C1095.1 13.6592 1095.61 13.8621 1096.21 13.8621C1096.82 13.8621 1097.32 13.6592 1097.71 13.2533C1098.1 12.8305 1098.3 12.323 1098.3 11.7311C1098.3 11.1222 1098.1 10.6148 1097.71 10.2089C1097.32 9.80293 1096.82 9.59998 1096.21 9.59998C1095.61 9.59998 1095.1 9.80293 1094.69 10.2089C1094.3 10.6148 1094.11 11.1222 1094.11 11.7311C1094.11 12.323 1094.3 12.8305 1094.69 13.2533Z" fill="white" fill-opacity="0.64"/>
<path d="M1038.57 27.8919V9.98059H1042.56V24.3908H1050.5V27.8919H1038.57Z" fill="white" fill-opacity="0.64"/>
<path fill-rule="evenodd" clip-rule="evenodd" d="M1057.67 28.1708C1056.4 28.1708 1055.25 27.8918 1054.22 27.3336C1053.2 26.7586 1052.4 25.9806 1051.81 24.9996C1051.22 24.0186 1050.92 22.9192 1050.92 21.7015C1050.92 20.4837 1051.22 19.3928 1051.81 18.4288C1052.4 17.4647 1053.2 16.7036 1054.22 16.1455C1055.23 15.5704 1056.38 15.2828 1057.67 15.2828C1058.96 15.2828 1060.11 15.562 1061.12 16.12C1062.13 16.6782 1062.94 17.4478 1063.53 18.4288C1064.12 19.3928 1064.42 20.4837 1064.42 21.7015C1064.42 22.9192 1064.12 24.0186 1063.53 24.9996C1062.94 25.9806 1062.13 26.7586 1061.12 27.3336C1060.11 27.8918 1058.96 28.1708 1057.67 28.1708ZM1057.67 24.6444C1058.23 24.6444 1058.72 24.526 1059.14 24.2892C1059.56 24.0356 1059.89 23.6888 1060.11 23.2491C1060.34 22.7924 1060.46 22.2765 1060.46 21.7015C1060.46 21.1264 1060.34 20.6275 1060.11 20.2047C1059.87 19.7649 1059.54 19.4267 1059.12 19.1899C1058.71 18.9361 1058.23 18.8093 1057.67 18.8093C1057.13 18.8093 1056.65 18.9361 1056.22 19.1899C1055.8 19.4267 1055.47 19.7649 1055.23 20.2047C1055 20.6444 1054.88 21.1518 1054.88 21.7268C1054.88 22.285 1055 22.7924 1055.23 23.2491C1055.47 23.6888 1055.8 24.0356 1056.22 24.2892C1056.65 24.526 1057.13 24.6444 1057.67 24.6444Z" fill="white" fill-opacity="0.64"/>
<path fill-rule="evenodd" clip-rule="evenodd" d="M1067.49 32.7121C1068.52 33.1857 1069.72 33.4225 1071.07 33.4225C1072.39 33.4225 1073.56 33.1603 1074.6 32.636C1075.63 32.1117 1076.44 31.3845 1077.03 30.4542C1077.62 29.524 1077.92 28.4246 1077.92 27.1561V15.562H1074.11V16.3904C1073.83 16.1521 1073.51 15.9521 1073.15 15.7903C1072.49 15.4689 1071.74 15.3082 1070.89 15.3082C1069.76 15.3082 1068.75 15.5789 1067.87 16.1201C1066.99 16.6444 1066.3 17.3717 1065.79 18.3019C1065.28 19.2153 1065.03 20.2469 1065.03 21.3971C1065.03 22.5303 1065.28 23.562 1065.79 24.4922C1066.3 25.4225 1066.99 26.1582 1067.87 26.6994C1068.75 27.2406 1069.76 27.5113 1070.89 27.5113C1071.72 27.5113 1072.47 27.3506 1073.15 27.0293C1073.48 26.8736 1073.77 26.6901 1074.04 26.4789V27.2576C1074.04 28.1201 1073.76 28.7882 1073.2 29.2618C1072.66 29.7354 1071.91 29.9721 1070.94 29.9721C1070.16 29.9721 1069.5 29.8369 1068.94 29.5662C1068.4 29.2957 1067.91 28.8981 1067.47 28.3738L1065.08 30.7586C1065.67 31.6043 1066.48 32.2555 1067.49 32.7121ZM1073.02 23.7057C1072.63 23.9425 1072.17 24.0609 1071.63 24.0609C1071.09 24.0609 1070.61 23.9425 1070.21 23.7057C1069.82 23.4689 1069.51 23.1476 1069.29 22.7417C1069.07 22.3189 1068.96 21.8706 1068.96 21.3971C1068.96 20.8897 1069.07 20.433 1069.29 20.0271C1069.51 19.6212 1069.83 19.2998 1070.23 19.063C1070.64 18.8262 1071.1 18.7078 1071.63 18.7078C1072.17 18.7078 1072.63 18.8262 1073.02 19.063C1073.43 19.2998 1073.73 19.6212 1073.94 20.0271C1074.16 20.433 1074.27 20.8897 1074.27 21.3971C1074.27 21.9045 1074.16 22.3611 1073.94 22.767C1073.73 23.1561 1073.43 23.4689 1073.02 23.7057Z" fill="white" fill-opacity="0.64"/>
<path fill-rule="evenodd" clip-rule="evenodd" d="M1086.09 28.1708C1084.82 28.1708 1083.67 27.8918 1082.64 27.3336C1081.62 26.7586 1080.82 25.9806 1080.23 24.9996C1079.64 24.0186 1079.34 22.9192 1079.34 21.7015C1079.34 20.4837 1079.64 19.3928 1080.23 18.4288C1080.82 17.4647 1081.62 16.7036 1082.64 16.1455C1083.65 15.5704 1084.8 15.2828 1086.09 15.2828C1087.37 15.2828 1088.52 15.562 1089.54 16.12C1090.55 16.6782 1091.36 17.4478 1091.95 18.4288C1092.54 19.3928 1092.84 20.4837 1092.84 21.7015C1092.84 22.9192 1092.54 24.0186 1091.95 24.9996C1091.36 25.9806 1090.55 26.7586 1089.54 27.3336C1088.52 27.8918 1087.37 28.1708 1086.09 28.1708ZM1086.09 24.6444C1086.65 24.6444 1087.14 24.526 1087.56 24.2892C1087.98 24.0356 1088.3 23.6888 1088.52 23.2491C1088.76 22.7924 1088.88 22.2765 1088.88 21.7015C1088.88 21.1264 1088.76 20.6275 1088.52 20.2047C1088.29 19.7649 1087.96 19.4267 1087.53 19.1899C1087.13 18.9361 1086.65 18.8093 1086.09 18.8093C1085.55 18.8093 1085.06 18.9361 1084.64 19.1899C1084.22 19.4267 1083.89 19.7649 1083.65 20.2047C1083.42 20.6444 1083.3 21.1518 1083.3 21.7268C1083.3 22.285 1083.42 22.7924 1083.65 23.2491C1083.89 23.6888 1084.22 24.0356 1084.64 24.2892C1085.06 24.526 1085.55 24.6444 1086.09 24.6444Z" fill="white" fill-opacity="0.64"/>
<path fill-rule="evenodd" clip-rule="evenodd" d="M1107.47 28.1455C1106.64 28.1455 1105.88 27.9849 1105.19 27.6635C1104.82 27.4944 1104.49 27.2925 1104.2 27.0577V33.0927H1100.37V15.562H1104.25V16.4129C1104.53 16.1826 1104.85 15.9835 1105.19 15.8157C1105.88 15.4773 1106.64 15.3082 1107.47 15.3082C1108.64 15.3082 1109.67 15.5873 1110.57 16.1455C1111.48 16.7036 1112.19 17.4647 1112.7 18.4288C1113.22 19.3929 1113.49 20.4922 1113.49 21.7269C1113.49 22.9616 1113.22 24.0609 1112.7 25.025C1112.19 25.9891 1111.48 26.7501 1110.57 27.3083C1109.67 27.8665 1108.64 28.1455 1107.47 28.1455ZM1106.76 24.6445C1107.32 24.6445 1107.8 24.5176 1108.21 24.2639C1108.63 24.0102 1108.96 23.6634 1109.2 23.2237C1109.43 22.784 1109.55 22.285 1109.55 21.7269C1109.55 21.1518 1109.43 20.6445 1109.2 20.2047C1108.96 19.7649 1108.63 19.4267 1108.21 19.1899C1107.8 18.9361 1107.33 18.8093 1106.79 18.8093C1106.25 18.8093 1105.76 18.9361 1105.34 19.1899C1104.94 19.4267 1104.61 19.7649 1104.38 20.2047C1104.14 20.6445 1104.02 21.1518 1104.02 21.7269C1104.02 22.285 1104.13 22.784 1104.35 23.2237C1104.59 23.6634 1104.92 24.0102 1105.34 24.2639C1105.76 24.5176 1106.24 24.6445 1106.76 24.6445Z" fill="white" fill-opacity="0.64"/>
<path d="M1117.28 27.9172C1117.99 28.1033 1118.71 28.1962 1119.44 28.1962C1120.98 28.1962 1122.2 27.8411 1123.09 27.1307C1124.01 26.4204 1124.46 25.4648 1124.46 24.2639C1124.46 23.4859 1124.32 22.8601 1124.03 22.3865C1123.75 21.8961 1123.37 21.507 1122.92 21.2195C1122.46 20.932 1121.98 20.7036 1121.47 20.5345C1120.96 20.3653 1120.48 20.2216 1120.02 20.1032C1119.57 19.9848 1119.2 19.8495 1118.91 19.6973C1118.62 19.545 1118.48 19.3421 1118.48 19.0884C1118.48 18.8516 1118.59 18.674 1118.81 18.5556C1119.03 18.4203 1119.36 18.3527 1119.8 18.3527C1120.25 18.3527 1120.72 18.4457 1121.19 18.6317C1121.68 18.8177 1122.12 19.1392 1122.51 19.5958L1124.72 17.3633C1124.16 16.6529 1123.43 16.1201 1122.54 15.7649C1121.66 15.3929 1120.69 15.2068 1119.64 15.2068C1118.65 15.2068 1117.77 15.3759 1117.03 15.7141C1116.29 16.0525 1115.71 16.5176 1115.31 17.1095C1114.9 17.6845 1114.7 18.3696 1114.7 19.1645C1114.7 19.9087 1114.84 20.5261 1115.13 21.0165C1115.41 21.4901 1115.79 21.8622 1116.24 22.1328C1116.7 22.4034 1117.18 22.6149 1117.69 22.767C1118.2 22.9193 1118.68 23.063 1119.14 23.1984C1119.59 23.3168 1119.97 23.4605 1120.25 23.6297C1120.56 23.7819 1120.71 24.0102 1120.71 24.3146C1120.71 24.5514 1120.58 24.7374 1120.33 24.8728C1120.09 25.0081 1119.75 25.0757 1119.29 25.0757C1118.63 25.0757 1118.02 24.9573 1117.46 24.7205C1116.9 24.4669 1116.42 24.1201 1116.02 23.6804L1113.81 25.9129C1114.23 26.3696 1114.74 26.7756 1115.33 27.1307C1115.94 27.4689 1116.59 27.7311 1117.28 27.9172Z" fill="white" fill-opacity="0.64"/>
<path d="M1131.54 28.1709C1130.41 28.1709 1129.4 27.9426 1128.52 27.4859C1127.66 27.0123 1126.98 26.3696 1126.49 25.5578C1126 24.7291 1125.76 23.7819 1125.76 22.7163V15.562H1129.64V22.6656C1129.64 23.0884 1129.71 23.4521 1129.84 23.7565C1129.99 24.061 1130.21 24.2978 1130.5 24.4669C1130.79 24.636 1131.14 24.7206 1131.54 24.7206C1132.12 24.7206 1132.57 24.543 1132.91 24.1878C1133.25 23.8157 1133.42 23.3083 1133.42 22.6656V15.562H1137.3V22.691C1137.3 23.7735 1137.06 24.7291 1136.57 25.5578C1136.07 26.3696 1135.4 27.0123 1134.54 27.4859C1133.67 27.9426 1132.68 28.1709 1131.54 28.1709Z" fill="white" fill-opacity="0.64"/>
<path d="M1143.11 15.562H1139.23V27.8918H1143.11V20.6867C1143.11 20.2639 1143.2 19.9087 1143.37 19.6212C1143.55 19.3337 1143.8 19.1137 1144.1 18.9616C1144.41 18.7924 1144.75 18.7078 1145.14 18.7078C1145.7 18.7078 1146.17 18.8854 1146.54 19.2406C1146.93 19.5789 1147.12 20.0609 1147.12 20.6867V27.8918H1151V20.6867C1151 20.2639 1151.09 19.9087 1151.26 19.6212C1151.44 19.3337 1151.69 19.1137 1151.99 18.9616C1152.3 18.7924 1152.64 18.7078 1153.03 18.7078C1153.59 18.7078 1154.06 18.8854 1154.43 19.2406C1154.82 19.5789 1155.01 20.0609 1155.01 20.6867V27.8918H1158.89V20.2554C1158.89 19.2237 1158.67 18.3442 1158.23 17.6169C1157.81 16.8727 1157.23 16.3061 1156.48 15.9172C1155.76 15.5112 1154.92 15.3082 1153.97 15.3082C1153.01 15.3082 1152.14 15.5197 1151.36 15.9425C1150.85 16.2119 1150.41 16.5596 1150.03 16.9855C1149.68 16.54 1149.25 16.1754 1148.74 15.8917C1148.07 15.5028 1147.3 15.3082 1146.44 15.3082C1145.52 15.3082 1144.7 15.5028 1143.98 15.8917C1143.66 16.0536 1143.37 16.2474 1143.11 16.4733V15.562Z" fill="white" fill-opacity="0.64"/>
</g>
<path d="M1222.7 9.65002V5.40002H1209.3V34.6H1222.7V30.35C1219.95 30.35 1217.32 29.2595 1215.38 27.3185C1213.44 25.3775 1212.35 22.745 1212.35 20C1212.35 17.255 1213.44 14.6224 1215.38 12.6815C1217.32 10.7405 1219.95 9.65002 1222.7 9.65002Z" fill="white" fill-opacity="0.64"/>
<path d="M1222.7 9.65002V30.35C1225.44 30.35 1228.08 29.2595 1230.02 27.3185C1231.96 25.3775 1233.05 22.745 1233.05 20C1233.05 17.255 1231.96 14.6224 1230.02 12.6815C1228.08 10.7405 1225.44 9.65002 1222.7 9.65002Z" fill="white" fill-opacity="0.64"/>
<path d="M1240.57 12.25H1243.57V26.7H1240.57V12.25Z" fill="white" fill-opacity="0.64"/>
<path d="M1245.25 21.75C1245.25 20.7104 1245.56 19.6942 1246.13 18.8302C1246.71 17.9662 1247.53 17.2933 1248.5 16.8968C1249.46 16.5004 1250.51 16.3982 1251.53 16.6032C1252.55 16.8082 1253.49 17.3112 1254.22 18.0484C1254.95 18.7857 1255.45 19.7239 1255.65 20.7443C1255.85 21.7647 1255.74 22.8212 1255.34 23.78C1254.94 24.7387 1254.26 25.5566 1253.39 26.1298C1252.53 26.7031 1251.51 27.0059 1250.47 27C1249.78 27.0054 1249.09 26.8731 1248.46 26.6107C1247.82 26.3484 1247.24 25.9614 1246.75 25.4725C1246.27 24.9835 1245.88 24.4023 1245.63 23.7631C1245.37 23.1239 1245.24 22.4395 1245.25 21.75ZM1252.77 21.75C1252.76 21.3018 1252.61 20.867 1252.35 20.5001C1252.1 20.1331 1251.74 19.8502 1251.32 19.6868C1250.9 19.5234 1250.45 19.4867 1250.01 19.5814C1249.57 19.676 1249.17 19.8977 1248.86 20.2189C1248.54 20.54 1248.33 20.9462 1248.25 21.3868C1248.16 21.8274 1248.21 22.2827 1248.39 22.6958C1248.56 23.1089 1248.85 23.4616 1249.23 23.7095C1249.6 23.9575 1250.04 24.0898 1250.49 24.09C1250.79 24.096 1251.1 24.0389 1251.38 23.9223C1251.66 23.8058 1251.92 23.6323 1252.13 23.4127C1252.34 23.1931 1252.5 22.932 1252.61 22.646C1252.72 22.3599 1252.76 22.0549 1252.75 21.75H1252.77Z" fill="white" fill-opacity="0.64"/>
<path d="M1267.56 16.8V26.21C1267.56 29.53 1264.96 30.94 1262.33 30.94C1261.4 31.0161 1260.47 30.8318 1259.64 30.4078C1258.81 29.9838 1258.12 29.3369 1257.64 28.54L1260.17 27.08C1260.37 27.4934 1260.7 27.8344 1261.1 28.0577C1261.51 28.281 1261.97 28.376 1262.43 28.33C1262.72 28.366 1263.02 28.337 1263.3 28.245C1263.58 28.1529 1263.83 28.0002 1264.05 27.7976C1264.26 27.595 1264.43 27.3477 1264.53 27.0732C1264.64 26.7988 1264.69 26.504 1264.67 26.21V25.3C1264.32 25.7233 1263.88 26.0593 1263.37 26.2815C1262.87 26.5037 1262.33 26.6059 1261.78 26.58C1260.45 26.58 1259.18 26.0532 1258.24 25.1155C1257.3 24.1779 1256.78 22.9061 1256.78 21.58C1256.78 20.2539 1257.3 18.9822 1258.24 18.0445C1259.18 17.1068 1260.45 16.58 1261.78 16.58C1262.33 16.5541 1262.87 16.6563 1263.37 16.8785C1263.88 17.1007 1264.32 17.4367 1264.67 17.86V16.86L1267.56 16.8ZM1264.67 21.55C1264.69 21.0716 1264.56 20.5981 1264.31 20.1905C1264.06 19.7829 1263.69 19.4598 1263.26 19.2627C1262.82 19.0656 1262.34 19.0036 1261.86 19.0846C1261.39 19.1656 1260.95 19.3859 1260.61 19.7172C1260.26 20.0485 1260.02 20.4757 1259.92 20.9438C1259.82 21.4119 1259.86 21.8994 1260.04 22.3438C1260.22 22.7882 1260.53 23.1691 1260.92 23.4375C1261.32 23.7059 1261.79 23.8496 1262.27 23.85C1262.58 23.8725 1262.89 23.8292 1263.19 23.723C1263.48 23.6167 1263.75 23.4498 1263.98 23.233C1264.2 23.0163 1264.38 22.7545 1264.5 22.4646C1264.62 22.1747 1264.68 21.8631 1264.67 21.55Z" fill="white" fill-opacity="0.64"/>
<path d="M1269.25 21.75C1269.25 20.7112 1269.56 19.6958 1270.13 18.8322C1270.71 17.9686 1271.53 17.2957 1272.49 16.8987C1273.45 16.5016 1274.51 16.3982 1275.53 16.6016C1276.54 16.805 1277.48 17.306 1278.21 18.0412C1278.95 18.7765 1279.45 19.7129 1279.65 20.7319C1279.85 21.751 1279.74 22.8069 1279.35 23.766C1278.95 24.7252 1278.27 25.5444 1277.41 26.1201C1276.54 26.6958 1275.53 27.002 1274.49 27C1273.8 27.0067 1273.11 26.8754 1272.47 26.6138C1271.83 26.3522 1271.25 25.9656 1270.76 25.4766C1270.28 24.9876 1269.89 24.4061 1269.63 23.7662C1269.37 23.1263 1269.24 22.4408 1269.25 21.75ZM1276.77 21.75C1276.76 21.3014 1276.61 20.8662 1276.35 20.499C1276.1 20.1319 1275.74 19.849 1275.32 19.6859C1274.9 19.5228 1274.44 19.4867 1274 19.5822C1273.56 19.6776 1273.16 19.9004 1272.85 20.2225C1272.54 20.5446 1272.33 20.9518 1272.25 21.393C1272.16 21.8342 1272.21 22.2898 1272.39 22.7027C1272.57 23.1157 1272.86 23.4676 1273.23 23.7144C1273.61 23.9611 1274.05 24.0918 1274.5 24.09C1274.8 24.096 1275.11 24.0389 1275.39 23.9223C1275.67 23.8058 1275.93 23.6323 1276.14 23.4127C1276.35 23.1931 1276.51 22.932 1276.62 22.646C1276.73 22.3599 1276.77 22.0549 1276.76 21.75H1276.77Z" fill="white" fill-opacity="0.64"/>
<path d="M1281.12 14.15C1281.12 13.798 1281.22 13.4538 1281.42 13.1611C1281.61 12.8684 1281.89 12.6402 1282.22 12.5055C1282.54 12.3708 1282.9 12.3355 1283.24 12.4042C1283.59 12.4729 1283.91 12.6424 1284.16 12.8913C1284.41 13.1403 1284.57 13.4575 1284.64 13.8027C1284.71 14.148 1284.68 14.5059 1284.54 14.8312C1284.41 15.1564 1284.18 15.4344 1283.89 15.63C1283.59 15.8256 1283.25 15.93 1282.9 15.93C1282.43 15.9248 1281.98 15.7356 1281.64 15.4029C1281.31 15.0702 1281.12 14.6205 1281.12 14.15ZM1281.41 16.8H1284.41V26.7H1281.41V16.8Z" fill="white" fill-opacity="0.64"/>
<path d="M1297.25 21.75C1297.28 22.4084 1297.18 23.067 1296.96 23.6878C1296.74 24.3086 1296.4 24.8794 1295.95 25.3673C1295.51 25.8553 1294.98 26.2507 1294.38 26.5309C1293.78 26.8111 1293.14 26.9705 1292.48 27C1291.92 27.0372 1291.36 26.9477 1290.84 26.7382C1290.32 26.5286 1289.85 26.2045 1289.48 25.79V30.68H1286.48V16.8H1289.48V17.73C1289.85 17.3167 1290.32 16.9941 1290.84 16.7863C1291.36 16.5784 1291.92 16.4908 1292.48 16.53C1293.13 16.5595 1293.78 16.718 1294.37 16.9963C1294.97 17.2746 1295.5 17.6674 1295.94 18.1521C1296.39 18.6368 1296.73 19.204 1296.95 19.8214C1297.18 20.4387 1297.28 21.094 1297.25 21.75ZM1294.25 21.75C1294.24 21.2855 1294.09 20.8349 1293.82 20.4546C1293.55 20.0743 1293.18 19.7811 1292.75 19.612C1292.31 19.4428 1291.84 19.4052 1291.39 19.5037C1290.93 19.6022 1290.52 19.8326 1290.2 20.1659C1289.87 20.4992 1289.65 20.9206 1289.57 21.3774C1289.48 21.8341 1289.53 22.3058 1289.72 22.7334C1289.9 23.1609 1290.2 23.5253 1290.59 23.7809C1290.98 24.0365 1291.43 24.1718 1291.9 24.17C1292.22 24.1835 1292.53 24.1296 1292.83 24.0118C1293.13 23.894 1293.39 23.715 1293.61 23.4865C1293.84 23.258 1294.01 22.9851 1294.12 22.6859C1294.23 22.3866 1294.27 22.0677 1294.25 21.75Z" fill="white" fill-opacity="0.64"/>
<path d="M1306.38 23.73C1306.38 26.01 1304.38 26.98 1302.26 26.98C1301.39 27.0578 1300.52 26.8745 1299.77 26.4538C1299.01 26.0331 1298.39 25.3943 1298 24.62L1300.58 23.16C1300.68 23.5168 1300.9 23.8277 1301.21 24.0407C1301.51 24.2537 1301.88 24.3558 1302.25 24.33C1302.96 24.33 1303.32 24.11 1303.32 23.71C1303.32 22.62 1298.45 23.2 1298.45 19.77C1298.45 17.61 1300.27 16.53 1302.33 16.53C1303.11 16.4949 1303.89 16.6726 1304.58 17.0441C1305.27 17.4156 1305.85 17.9671 1306.25 18.64L1303.67 20C1303.55 19.742 1303.37 19.5226 1303.13 19.3682C1302.9 19.2138 1302.62 19.1311 1302.34 19.13C1301.82 19.13 1301.51 19.33 1301.51 19.68C1301.51 20.82 1306.38 20.07 1306.38 23.73Z" fill="white" fill-opacity="0.64"/>
<path d="M1317.25 16.8V26.7H1314.25V25.77C1313.91 26.1817 1313.47 26.5074 1312.98 26.7211C1312.49 26.9348 1311.96 27.0303 1311.43 27C1309.43 27 1307.72 25.57 1307.72 22.9V16.8H1310.72V22.45C1310.69 22.6862 1310.72 22.9247 1310.8 23.1491C1310.88 23.3734 1311 23.5782 1311.17 23.7494C1311.33 23.9205 1311.53 24.0539 1311.75 24.1404C1311.97 24.2268 1312.21 24.2642 1312.45 24.25C1313.53 24.25 1314.29 23.61 1314.29 22.25V16.8H1317.25Z" fill="white" fill-opacity="0.64"/>
<path d="M1334.25 20.62V26.7H1331.25V20.88C1331.25 19.88 1330.78 19.26 1329.83 19.26C1328.88 19.26 1328.28 19.95 1328.28 21.12V26.7H1325.28V20.88C1325.28 19.88 1324.81 19.26 1323.86 19.26C1322.91 19.26 1322.31 19.95 1322.31 21.12V26.7H1319.31V16.8H1322.31V17.71C1322.62 17.308 1323.02 16.9896 1323.49 16.7836C1323.95 16.5776 1324.46 16.4904 1324.97 16.53C1325.47 16.5035 1325.98 16.6095 1326.43 16.8374C1326.89 17.0653 1327.28 17.4074 1327.56 17.83C1327.89 17.3884 1328.32 17.0376 1328.83 16.8103C1329.33 16.5829 1329.88 16.4865 1330.43 16.53C1332.77 16.53 1334.25 18.15 1334.25 20.62Z" fill="white" fill-opacity="0.64"/>
<path d="M1336.77 16.74C1337.98 16.74 1338.97 15.755 1338.97 14.54C1338.97 13.325 1337.98 12.34 1336.77 12.34C1335.55 12.34 1334.57 13.325 1334.57 14.54C1334.57 15.755 1335.55 16.74 1336.77 16.74Z" fill="white" fill-opacity="0.64"/>
<g clip-path="url(#clip4_1_1522)">
<path d="M1393.06 7.388C1393.27 6.4008 1394.26 5.6 1395.26 5.6H1400.71L1396.18 27.0584H1390.73C1389.72 27.0584 1389.08 26.2584 1389.29 25.2704L1393.06 7.388ZM1411.23 7.388C1411.44 6.4008 1412.42 5.6 1413.42 5.6H1418.87L1414.34 27.0584H1408.89C1407.89 27.0584 1407.24 26.2584 1407.45 25.2704L1411.23 7.388ZM1447.56 7.388C1447.77 6.4008 1448.75 5.6 1449.76 5.6H1455.21L1450.67 27.0584H1445.22C1444.22 27.0584 1443.58 26.2584 1443.78 25.2704L1447.56 7.388ZM1420.69 5.6H1426.14C1427.14 5.6 1427.79 6.4 1427.58 7.388L1423.8 25.2704C1423.59 26.2584 1422.61 27.0584 1421.61 27.0584H1416.16L1420.69 5.6ZM1457.02 5.6H1462.47C1463.47 5.6 1464.12 6.4 1463.91 7.388L1460.13 25.2704C1459.93 26.2584 1458.94 27.0584 1457.94 27.0584H1452.49L1457.02 5.6ZM1429.4 7.388C1429.6 6.4008 1430.59 5.6 1431.59 5.6H1437.04L1432.51 27.0584H1427.06C1426.05 27.0584 1425.41 26.2584 1425.62 25.2704L1429.39 7.388H1429.4ZM1438.86 5.6H1444.31C1445.31 5.6 1445.95 6.4 1445.74 7.388L1440.08 34.212C1439.87 35.1992 1438.89 36 1437.88 36H1432.43L1438.86 5.6ZM1399.5 19.9056H1406.77L1405.64 25.2704C1405.43 26.2584 1404.44 27.0584 1403.44 27.0584H1397.99L1399.5 19.9064L1399.5 19.9056ZM1424.86 28.8472H1432.13L1430.62 36H1425.17C1424.17 36 1423.52 35.2 1423.73 34.212L1424.86 28.8472ZM1444.59 30.5104L1443.67 34.8672C1443.63 35.0544 1443.56 35.1056 1443.37 35.1056H1442.96C1442.77 35.1056 1442.72 35.0544 1442.76 34.8672L1443.68 30.5104C1443.72 30.324 1443.79 30.272 1443.98 30.272H1444.39C1444.59 30.272 1444.63 30.324 1444.59 30.5104ZM1445.8 33.4496H1445.71C1445.62 33.4496 1445.59 33.4752 1445.57 33.5656L1445.29 34.8672C1445.25 35.0544 1445.19 35.1056 1445 35.1056H1444.58C1444.39 35.1056 1444.35 35.0544 1444.39 34.8672L1445.31 30.5104C1445.35 30.324 1445.41 30.272 1445.6 30.272H1446.47C1447.46 30.272 1447.84 30.6264 1447.66 31.496L1447.5 32.2248C1447.32 33.0952 1446.79 33.4496 1445.8 33.4496ZM1446.05 31.2904L1445.81 32.4312C1445.79 32.5216 1445.81 32.5472 1445.9 32.5472H1446.04C1446.36 32.5472 1446.53 32.4184 1446.6 32.0896L1446.7 31.632C1446.77 31.304 1446.65 31.1744 1446.33 31.1744H1446.19C1446.1 31.1744 1446.07 31.2 1446.05 31.2904ZM1449.04 31.9928L1449.72 32.7408C1450.08 33.1272 1450.13 33.3592 1450.03 33.7912L1450.01 33.9072C1449.84 34.7192 1449.43 35.1704 1448.48 35.1704C1447.53 35.1704 1447.3 34.7904 1447.52 33.752L1447.54 33.624C1447.58 33.4368 1447.65 33.3848 1447.84 33.3848H1448.28C1448.47 33.3848 1448.51 33.4368 1448.47 33.6232L1448.41 33.9072C1448.36 34.1648 1448.44 34.268 1448.67 34.268C1448.9 34.268 1449.02 34.172 1449.07 33.94L1449.1 33.8168C1449.14 33.636 1449.12 33.5464 1448.92 33.3336L1448.28 32.644C1447.92 32.264 1447.88 32.044 1447.97 31.612L1448 31.4712C1448.17 30.6592 1448.58 30.2072 1449.53 30.2072C1450.48 30.2072 1450.71 30.588 1450.49 31.6256L1450.47 31.7544C1450.43 31.9416 1450.36 31.9928 1450.17 31.9928H1449.73C1449.54 31.9928 1449.5 31.9416 1449.53 31.7544L1449.59 31.4712C1449.65 31.2128 1449.57 31.1104 1449.34 31.1104C1449.11 31.1104 1448.98 31.2064 1448.93 31.4384L1448.91 31.548C1448.87 31.7352 1448.89 31.8256 1449.04 31.9928ZM1452.87 30.5104C1452.91 30.324 1452.98 30.272 1453.17 30.272H1453.58C1453.77 30.272 1453.82 30.324 1453.78 30.5104L1453.09 33.7528C1452.87 34.7904 1452.48 35.1704 1451.53 35.1704C1450.58 35.1704 1450.35 34.7904 1450.56 33.752L1451.25 30.5104C1451.29 30.324 1451.35 30.272 1451.54 30.272H1451.96C1452.15 30.272 1452.19 30.324 1452.15 30.5104L1451.44 33.9072C1451.38 34.1648 1451.47 34.268 1451.72 34.268C1451.96 34.268 1452.1 34.1648 1452.16 33.9072L1452.87 30.5104ZM1455.6 33.1336C1455.6 33.1856 1455.62 33.1976 1455.65 33.1976C1455.68 33.1976 1455.71 33.1856 1455.73 33.1336L1456.86 30.44C1456.92 30.304 1456.98 30.272 1457.15 30.272H1457.78C1457.97 30.272 1458.01 30.324 1457.97 30.5104L1457.05 34.8672C1457.01 35.0544 1456.95 35.1056 1456.76 35.1056H1456.46C1456.27 35.1056 1456.23 35.0544 1456.27 34.8672L1456.71 32.7792C1456.72 32.7216 1456.71 32.708 1456.67 32.708C1456.64 32.708 1456.61 32.7216 1456.6 32.7664L1455.68 34.8936C1455.62 35.048 1455.53 35.1056 1455.35 35.1056H1455.17C1454.97 35.1056 1454.91 35.048 1454.91 34.8936L1454.89 32.7656C1454.89 32.7208 1454.87 32.708 1454.84 32.708C1454.8 32.708 1454.79 32.7216 1454.77 32.7792L1454.33 34.8672C1454.29 35.0544 1454.23 35.1056 1454.04 35.1056H1453.74C1453.55 35.1056 1453.51 35.0544 1453.55 34.8672L1454.47 30.5104C1454.51 30.324 1454.57 30.272 1454.76 30.272H1455.31C1455.53 30.272 1455.61 30.324 1455.61 30.5496L1455.6 33.1336H1455.6ZM1469.25 5.6C1469.25 6.484 1468.54 7.2 1467.66 7.2C1467.45 7.19937 1467.24 7.15748 1467.05 7.07672C1466.85 6.99596 1466.68 6.87792 1466.53 6.72934C1466.38 6.58075 1466.27 6.40454 1466.19 6.21076C1466.11 6.01699 1466.07 5.80945 1466.07 5.6C1466.07 4.716 1466.78 4 1467.66 4C1468.54 4 1469.25 4.716 1469.25 5.6Z" fill="white" fill-opacity="0.64"/>
</g>
<defs>
<clipPath id="clip0_1_1522">
<rect width="187" height="40" fill="white" transform="translate(173.99)"/>
</clipPath>
<clipPath id="clip1_1_1522">
<rect width="118.8" height="27" fill="white" transform="translate(408.99 6.5)"/>
</clipPath>
<clipPath id="clip2_1_1522">
<rect width="175" height="40" fill="white" transform="translate(575.791)"/>
</clipPath>
<clipPath id="clip3_1_1522">
<rect width="161.6" height="32" fill="white" transform="translate(997.648 4)"/>
</clipPath>
<clipPath id="clip4_1_1522">
<rect width="80" height="32" fill="white" transform="translate(1389.25 4)"/>
</clipPath>
</defs>
</svg>
